<mxfile host="Electron" modified="2023-04-20T08:07:20.223Z" agent="Mozilla/5.0 (Macintosh; Intel Mac OS X 10_15_7) AppleWebKit/537.36 (KHTML, like Gecko) draw.io/21.1.2 Chrome/106.0.5249.199 Electron/21.4.3 Safari/537.36" etag="4Kt71MzZFWkxT2XxprxV" version="21.1.2" type="device">
  <diagram name="Page-1" id="c0iDwcsXiIkoIXqXG3aF">
    <mxGraphModel dx="954" dy="699" grid="1" gridSize="10" guides="1" tooltips="1" connect="1" arrows="1" fold="1" page="1" pageScale="1" pageWidth="827" pageHeight="1169" math="0" shadow="0">
      <root>
        <mxCell id="0" />
        <mxCell id="1" parent="0" />
        <mxCell id="PZJaL0K4n0An9xKFNR_v-7" value="" style="rounded=0;orthogonalLoop=1;jettySize=auto;html=1;strokeWidth=2;endArrow=none;endFill=0;" parent="1" source="PZJaL0K4n0An9xKFNR_v-1" target="PZJaL0K4n0An9xKFNR_v-6" edge="1">
          <mxGeometry relative="1" as="geometry" />
        </mxCell>
        <mxCell id="PZJaL0K4n0An9xKFNR_v-10" value="" style="rounded=0;orthogonalLoop=1;jettySize=auto;html=1;strokeWidth=2;endArrow=none;endFill=0;" parent="1" source="PZJaL0K4n0An9xKFNR_v-1" target="PZJaL0K4n0An9xKFNR_v-9" edge="1">
          <mxGeometry relative="1" as="geometry" />
        </mxCell>
        <mxCell id="PZJaL0K4n0An9xKFNR_v-16" value="" style="rounded=0;orthogonalLoop=1;jettySize=auto;html=1;endArrow=none;endFill=0;strokeWidth=2;" parent="1" source="PZJaL0K4n0An9xKFNR_v-1" target="PZJaL0K4n0An9xKFNR_v-15" edge="1">
          <mxGeometry relative="1" as="geometry" />
        </mxCell>
        <mxCell id="PZJaL0K4n0An9xKFNR_v-1" value="Student" style="rounded=0;whiteSpace=wrap;html=1;fillColor=#E6E6E6;fontSize=30;fontFamily=Ubuntu Mono;strokeWidth=3;" parent="1" vertex="1">
          <mxGeometry x="110" y="160" width="120" height="40" as="geometry" />
        </mxCell>
        <mxCell id="PZJaL0K4n0An9xKFNR_v-11" value="" style="rounded=0;orthogonalLoop=1;jettySize=auto;html=1;strokeWidth=2;endArrow=none;endFill=0;" parent="1" source="PZJaL0K4n0An9xKFNR_v-2" target="PZJaL0K4n0An9xKFNR_v-9" edge="1">
          <mxGeometry relative="1" as="geometry" />
        </mxCell>
        <mxCell id="PZJaL0K4n0An9xKFNR_v-20" style="rounded=0;orthogonalLoop=1;jettySize=auto;html=1;strokeWidth=2;endArrow=none;endFill=0;" parent="1" source="PZJaL0K4n0An9xKFNR_v-2" target="PZJaL0K4n0An9xKFNR_v-18" edge="1">
          <mxGeometry relative="1" as="geometry" />
        </mxCell>
        <mxCell id="PZJaL0K4n0An9xKFNR_v-24" value="" style="rounded=0;orthogonalLoop=1;jettySize=auto;html=1;strokeWidth=2;endArrow=none;endFill=0;" parent="1" source="PZJaL0K4n0An9xKFNR_v-2" target="PZJaL0K4n0An9xKFNR_v-23" edge="1">
          <mxGeometry relative="1" as="geometry" />
        </mxCell>
        <mxCell id="PZJaL0K4n0An9xKFNR_v-2" value="Course" style="rounded=0;whiteSpace=wrap;html=1;fillColor=#E6E6E6;fontSize=30;fontFamily=Ubuntu Mono;strokeWidth=3;" parent="1" vertex="1">
          <mxGeometry x="500" y="160" width="120" height="40" as="geometry" />
        </mxCell>
        <mxCell id="PZJaL0K4n0An9xKFNR_v-3" value="Guardian" style="rounded=0;whiteSpace=wrap;html=1;fillColor=#E6E6E6;fontSize=25;fontFamily=Ubuntu Mono;strokeWidth=2;perimeterSpacing=0;" parent="1" vertex="1">
          <mxGeometry x="55" y="325" width="110" height="30" as="geometry" />
        </mxCell>
        <mxCell id="PZJaL0K4n0An9xKFNR_v-6" value="has" style="rhombus;whiteSpace=wrap;html=1;fontFamily=Ubuntu Mono;strokeWidth=2;fontSize=15;fillColor=#E6E6E6;" parent="1" vertex="1">
          <mxGeometry x="120" y="240" width="40" height="40" as="geometry" />
        </mxCell>
        <mxCell id="PZJaL0K4n0An9xKFNR_v-9" value="opt" style="rhombus;whiteSpace=wrap;html=1;fontFamily=Ubuntu Mono;strokeWidth=3;fontSize=15;fillColor=#E6E6E6;" parent="1" vertex="1">
          <mxGeometry x="340" y="155" width="50" height="50" as="geometry" />
        </mxCell>
        <mxCell id="PZJaL0K4n0An9xKFNR_v-27" value="" style="rounded=0;orthogonalLoop=1;jettySize=auto;html=1;strokeWidth=2;endArrow=none;endFill=0;" parent="1" source="PZJaL0K4n0An9xKFNR_v-12" target="PZJaL0K4n0An9xKFNR_v-26" edge="1">
          <mxGeometry relative="1" as="geometry" />
        </mxCell>
        <mxCell id="PZJaL0K4n0An9xKFNR_v-12" value="Department" style="rounded=0;whiteSpace=wrap;html=1;fillColor=#E6E6E6;fontSize=21;fontFamily=Ubuntu Mono;strokeWidth=3;" parent="1" vertex="1">
          <mxGeometry x="230" y="320" width="120" height="40" as="geometry" />
        </mxCell>
        <mxCell id="PZJaL0K4n0An9xKFNR_v-14" value="" style="rounded=0;orthogonalLoop=1;jettySize=auto;html=1;strokeWidth=2;endArrow=none;endFill=0;" parent="1" source="PZJaL0K4n0An9xKFNR_v-13" target="PZJaL0K4n0An9xKFNR_v-6" edge="1">
          <mxGeometry relative="1" as="geometry" />
        </mxCell>
        <mxCell id="PZJaL0K4n0An9xKFNR_v-13" value="" style="rounded=0;whiteSpace=wrap;html=1;fillColor=none;fontSize=30;fontFamily=Ubuntu Mono;strokeWidth=2;" parent="1" vertex="1">
          <mxGeometry x="50" y="320" width="120" height="40" as="geometry" />
        </mxCell>
        <mxCell id="PZJaL0K4n0An9xKFNR_v-17" value="" style="rounded=0;orthogonalLoop=1;jettySize=auto;html=1;strokeWidth=2;endArrow=none;endFill=0;" parent="1" source="PZJaL0K4n0An9xKFNR_v-15" target="PZJaL0K4n0An9xKFNR_v-12" edge="1">
          <mxGeometry relative="1" as="geometry" />
        </mxCell>
        <mxCell id="PZJaL0K4n0An9xKFNR_v-15" value="enrolled&lt;br style=&quot;font-size: 8px;&quot;&gt;in" style="rhombus;whiteSpace=wrap;html=1;fontFamily=Ubuntu Mono;strokeWidth=3;fontSize=8;fillColor=#E6E6E6;verticalAlign=middle;" parent="1" vertex="1">
          <mxGeometry x="210" y="240" width="50" height="50" as="geometry" />
        </mxCell>
        <mxCell id="PZJaL0K4n0An9xKFNR_v-21" style="rounded=0;orthogonalLoop=1;jettySize=auto;html=1;strokeWidth=2;endArrow=none;endFill=0;" parent="1" source="PZJaL0K4n0An9xKFNR_v-18" target="PZJaL0K4n0An9xKFNR_v-12" edge="1">
          <mxGeometry relative="1" as="geometry" />
        </mxCell>
        <mxCell id="PZJaL0K4n0An9xKFNR_v-18" value="conducted&lt;br&gt;by" style="rhombus;whiteSpace=wrap;html=1;fontFamily=Ubuntu Mono;strokeWidth=3;fontSize=8;fillColor=#E6E6E6;verticalAlign=middle;" parent="1" vertex="1">
          <mxGeometry x="390" y="240" width="50" height="50" as="geometry" />
        </mxCell>
        <mxCell id="PZJaL0K4n0An9xKFNR_v-53" value="" style="rounded=0;orthogonalLoop=1;jettySize=auto;html=1;strokeWidth=2;endArrow=none;endFill=0;" parent="1" source="PZJaL0K4n0An9xKFNR_v-22" target="PZJaL0K4n0An9xKFNR_v-52" edge="1">
          <mxGeometry relative="1" as="geometry" />
        </mxCell>
        <mxCell id="PZJaL0K4n0An9xKFNR_v-22" value="Faculty" style="rounded=0;whiteSpace=wrap;html=1;fillColor=#E6E6E6;fontSize=30;fontFamily=Ubuntu Mono;strokeWidth=3;" parent="1" vertex="1">
          <mxGeometry x="500" y="320" width="120" height="40" as="geometry" />
        </mxCell>
        <mxCell id="PZJaL0K4n0An9xKFNR_v-25" value="" style="rounded=0;orthogonalLoop=1;jettySize=auto;html=1;strokeWidth=2;endArrow=none;endFill=0;" parent="1" source="PZJaL0K4n0An9xKFNR_v-23" target="PZJaL0K4n0An9xKFNR_v-22" edge="1">
          <mxGeometry relative="1" as="geometry" />
        </mxCell>
        <mxCell id="PZJaL0K4n0An9xKFNR_v-23" value="taught&lt;br style=&quot;font-size: 10px;&quot;&gt;by" style="rhombus;whiteSpace=wrap;html=1;fontFamily=Ubuntu Mono;strokeWidth=3;fontSize=10;fillColor=#E6E6E6;verticalAlign=middle;" parent="1" vertex="1">
          <mxGeometry x="535" y="240" width="50" height="50" as="geometry" />
        </mxCell>
        <mxCell id="PZJaL0K4n0An9xKFNR_v-28" value="" style="rounded=0;orthogonalLoop=1;jettySize=auto;html=1;strokeWidth=2;endArrow=none;endFill=0;" parent="1" source="PZJaL0K4n0An9xKFNR_v-26" target="PZJaL0K4n0An9xKFNR_v-22" edge="1">
          <mxGeometry relative="1" as="geometry" />
        </mxCell>
        <mxCell id="PZJaL0K4n0An9xKFNR_v-32" value="" style="rounded=0;orthogonalLoop=1;jettySize=auto;html=1;strokeWidth=2;endArrow=none;endFill=0;" parent="1" source="PZJaL0K4n0An9xKFNR_v-26" target="PZJaL0K4n0An9xKFNR_v-29" edge="1">
          <mxGeometry relative="1" as="geometry" />
        </mxCell>
        <mxCell id="PZJaL0K4n0An9xKFNR_v-26" value="works&lt;br&gt;in" style="rhombus;whiteSpace=wrap;html=1;fontFamily=Ubuntu Mono;strokeWidth=3;fontSize=10;fillColor=#E6E6E6;verticalAlign=middle;" parent="1" vertex="1">
          <mxGeometry x="400" y="315" width="50" height="50" as="geometry" />
        </mxCell>
        <mxCell id="PZJaL0K4n0An9xKFNR_v-33" value="" style="rounded=0;orthogonalLoop=1;jettySize=auto;html=1;strokeWidth=2;endArrow=none;endFill=0;" parent="1" source="PZJaL0K4n0An9xKFNR_v-29" target="PZJaL0K4n0An9xKFNR_v-31" edge="1">
          <mxGeometry relative="1" as="geometry" />
        </mxCell>
        <mxCell id="PZJaL0K4n0An9xKFNR_v-29" value="teaches&lt;br style=&quot;font-size: 9px;&quot;&gt;in" style="rhombus;whiteSpace=wrap;html=1;fontFamily=Ubuntu Mono;strokeWidth=3;fontSize=9;fillColor=#E6E6E6;verticalAlign=middle;" parent="1" vertex="1">
          <mxGeometry x="400" y="630" width="50" height="50" as="geometry" />
        </mxCell>
        <mxCell id="PZJaL0K4n0An9xKFNR_v-31" value="Class" style="rounded=0;whiteSpace=wrap;html=1;fillColor=#E6E6E6;fontSize=30;fontFamily=Ubuntu Mono;strokeWidth=3;" parent="1" vertex="1">
          <mxGeometry x="365" y="730" width="120" height="40" as="geometry" />
        </mxCell>
        <mxCell id="PZJaL0K4n0An9xKFNR_v-37" value="" style="rounded=0;orthogonalLoop=1;jettySize=auto;html=1;strokeWidth=2;endArrow=none;endFill=0;" parent="1" source="PZJaL0K4n0An9xKFNR_v-34" target="PZJaL0K4n0An9xKFNR_v-1" edge="1">
          <mxGeometry relative="1" as="geometry" />
        </mxCell>
        <mxCell id="PZJaL0K4n0An9xKFNR_v-34" value="RNO" style="ellipse;whiteSpace=wrap;html=1;fillColor=#E6E6E6;fontFamily=Ubuntu Mono;fontSize=20;strokeWidth=3;fontStyle=4" parent="1" vertex="1">
          <mxGeometry x="195" y="80" width="80" height="40" as="geometry" />
        </mxCell>
        <mxCell id="PZJaL0K4n0An9xKFNR_v-36" value="" style="rounded=0;orthogonalLoop=1;jettySize=auto;html=1;strokeWidth=2;endArrow=none;endFill=0;" parent="1" source="PZJaL0K4n0An9xKFNR_v-35" target="PZJaL0K4n0An9xKFNR_v-1" edge="1">
          <mxGeometry relative="1" as="geometry" />
        </mxCell>
        <mxCell id="PZJaL0K4n0An9xKFNR_v-35" value="Name" style="ellipse;whiteSpace=wrap;html=1;fillColor=#E6E6E6;fontFamily=Ubuntu Mono;fontSize=20;strokeWidth=3;" parent="1" vertex="1">
          <mxGeometry x="69.99999999999989" y="80" width="80" height="40" as="geometry" />
        </mxCell>
        <mxCell id="PZJaL0K4n0An9xKFNR_v-42" style="rounded=0;orthogonalLoop=1;jettySize=auto;html=1;strokeWidth=2;endArrow=none;endFill=0;" parent="1" source="PZJaL0K4n0An9xKFNR_v-38" target="PZJaL0K4n0An9xKFNR_v-35" edge="1">
          <mxGeometry relative="1" as="geometry" />
        </mxCell>
        <mxCell id="PZJaL0K4n0An9xKFNR_v-38" value="F_Name" style="ellipse;whiteSpace=wrap;html=1;fillColor=#E6E6E6;fontFamily=Ubuntu Mono;fontSize=15;strokeWidth=3;" parent="1" vertex="1">
          <mxGeometry x="30" y="30" width="70" height="30" as="geometry" />
        </mxCell>
        <mxCell id="PZJaL0K4n0An9xKFNR_v-43" style="rounded=0;orthogonalLoop=1;jettySize=auto;html=1;strokeWidth=2;endArrow=none;endFill=0;" parent="1" source="PZJaL0K4n0An9xKFNR_v-39" target="PZJaL0K4n0An9xKFNR_v-35" edge="1">
          <mxGeometry relative="1" as="geometry" />
        </mxCell>
        <mxCell id="PZJaL0K4n0An9xKFNR_v-39" value="L_Name" style="ellipse;whiteSpace=wrap;html=1;fillColor=#E6E6E6;fontFamily=Ubuntu Mono;fontSize=15;strokeWidth=3;" parent="1" vertex="1">
          <mxGeometry x="120" y="30" width="70" height="30" as="geometry" />
        </mxCell>
        <mxCell id="PZJaL0K4n0An9xKFNR_v-46" style="rounded=0;orthogonalLoop=1;jettySize=auto;html=1;strokeWidth=2;endArrow=none;endFill=0;" parent="1" source="PZJaL0K4n0An9xKFNR_v-44" target="PZJaL0K4n0An9xKFNR_v-2" edge="1">
          <mxGeometry relative="1" as="geometry" />
        </mxCell>
        <mxCell id="PZJaL0K4n0An9xKFNR_v-44" value="CID" style="ellipse;whiteSpace=wrap;html=1;fillColor=#E6E6E6;fontFamily=Ubuntu Mono;fontSize=20;strokeWidth=3;fontStyle=4;" parent="1" vertex="1">
          <mxGeometry x="520" y="80" width="80" height="40" as="geometry" />
        </mxCell>
        <mxCell id="PZJaL0K4n0An9xKFNR_v-51" style="rounded=0;orthogonalLoop=1;jettySize=auto;html=1;strokeWidth=2;endArrow=none;endFill=0;" parent="1" source="PZJaL0K4n0An9xKFNR_v-47" target="PZJaL0K4n0An9xKFNR_v-22" edge="1">
          <mxGeometry relative="1" as="geometry" />
        </mxCell>
        <mxCell id="PZJaL0K4n0An9xKFNR_v-47" value="Name" style="ellipse;whiteSpace=wrap;html=1;fillColor=#E6E6E6;fontFamily=Ubuntu Mono;fontSize=20;strokeWidth=3;fontStyle=0;" parent="1" vertex="1">
          <mxGeometry x="660" y="360" width="80" height="40" as="geometry" />
        </mxCell>
        <mxCell id="PZJaL0K4n0An9xKFNR_v-50" style="rounded=0;orthogonalLoop=1;jettySize=auto;html=1;strokeWidth=2;endArrow=none;endFill=0;" parent="1" source="PZJaL0K4n0An9xKFNR_v-48" target="PZJaL0K4n0An9xKFNR_v-22" edge="1">
          <mxGeometry relative="1" as="geometry" />
        </mxCell>
        <mxCell id="PZJaL0K4n0An9xKFNR_v-48" value="FID" style="ellipse;whiteSpace=wrap;html=1;fillColor=#E6E6E6;fontFamily=Ubuntu Mono;fontSize=20;strokeWidth=3;fontStyle=4;" parent="1" vertex="1">
          <mxGeometry x="660" y="280" width="80" height="40" as="geometry" />
        </mxCell>
        <mxCell id="PZJaL0K4n0An9xKFNR_v-52" value="d" style="ellipse;whiteSpace=wrap;html=1;aspect=fixed;fontSize=20;fontFamily=Ubuntu Mono;fillColor=#E6E6E6;strokeWidth=3;" parent="1" vertex="1">
          <mxGeometry x="540" y="400" width="40" height="40" as="geometry" />
        </mxCell>
        <mxCell id="PZJaL0K4n0An9xKFNR_v-58" style="rounded=0;orthogonalLoop=1;jettySize=auto;html=1;strokeWidth=2;endArrow=none;endFill=0;" parent="1" source="PZJaL0K4n0An9xKFNR_v-55" target="PZJaL0K4n0An9xKFNR_v-52" edge="1">
          <mxGeometry relative="1" as="geometry" />
        </mxCell>
        <mxCell id="PZJaL0K4n0An9xKFNR_v-55" value="MS" style="rounded=0;whiteSpace=wrap;html=1;fillColor=#E6E6E6;fontSize=30;fontFamily=Ubuntu Mono;strokeWidth=3;" parent="1" vertex="1">
          <mxGeometry x="460" y="490" width="80" height="40" as="geometry" />
        </mxCell>
        <mxCell id="PZJaL0K4n0An9xKFNR_v-59" style="rounded=0;orthogonalLoop=1;jettySize=auto;html=1;strokeWidth=2;endArrow=none;endFill=0;" parent="1" source="PZJaL0K4n0An9xKFNR_v-56" target="PZJaL0K4n0An9xKFNR_v-52" edge="1">
          <mxGeometry relative="1" as="geometry" />
        </mxCell>
        <mxCell id="PZJaL0K4n0An9xKFNR_v-56" value="ES" style="rounded=0;whiteSpace=wrap;html=1;fillColor=#E6E6E6;fontSize=30;fontFamily=Ubuntu Mono;strokeWidth=3;" parent="1" vertex="1">
          <mxGeometry x="580" y="490" width="80" height="40" as="geometry" />
        </mxCell>
        <mxCell id="PZJaL0K4n0An9xKFNR_v-62" value="" style="rounded=0;orthogonalLoop=1;jettySize=auto;html=1;strokeWidth=2;endArrow=none;endFill=0;" parent="1" source="PZJaL0K4n0An9xKFNR_v-60" target="PZJaL0K4n0An9xKFNR_v-55" edge="1">
          <mxGeometry relative="1" as="geometry" />
        </mxCell>
        <mxCell id="PZJaL0K4n0An9xKFNR_v-60" value="Time" style="ellipse;whiteSpace=wrap;html=1;fillColor=#E6E6E6;fontFamily=Ubuntu Mono;fontSize=20;strokeWidth=3;fontStyle=0;" parent="1" vertex="1">
          <mxGeometry x="460" y="560" width="80" height="40" as="geometry" />
        </mxCell>
        <mxCell id="PZJaL0K4n0An9xKFNR_v-63" value="" style="rounded=0;orthogonalLoop=1;jettySize=auto;html=1;strokeWidth=2;endArrow=none;endFill=0;" parent="1" source="PZJaL0K4n0An9xKFNR_v-61" target="PZJaL0K4n0An9xKFNR_v-56" edge="1">
          <mxGeometry relative="1" as="geometry" />
        </mxCell>
        <mxCell id="PZJaL0K4n0An9xKFNR_v-61" value="Time" style="ellipse;whiteSpace=wrap;html=1;fillColor=#E6E6E6;fontFamily=Ubuntu Mono;fontSize=20;strokeWidth=3;fontStyle=0;" parent="1" vertex="1">
          <mxGeometry x="580" y="560" width="80" height="40" as="geometry" />
        </mxCell>
        <mxCell id="PZJaL0K4n0An9xKFNR_v-64" value="" style="rhombus;whiteSpace=wrap;html=1;fillColor=none;strokeWidth=2;" parent="1" vertex="1">
          <mxGeometry x="115" y="235" width="50" height="50" as="geometry" />
        </mxCell>
        <mxCell id="PZJaL0K4n0An9xKFNR_v-69" value="" style="rounded=0;orthogonalLoop=1;jettySize=auto;html=1;strokeWidth=2;endArrow=none;endFill=0;" parent="1" source="PZJaL0K4n0An9xKFNR_v-65" target="PZJaL0K4n0An9xKFNR_v-13" edge="1">
          <mxGeometry relative="1" as="geometry" />
        </mxCell>
        <mxCell id="PZJaL0K4n0An9xKFNR_v-65" value="GID" style="ellipse;whiteSpace=wrap;html=1;fillColor=#E6E6E6;fontFamily=Ubuntu Mono;fontSize=20;strokeWidth=3;fontStyle=4" parent="1" vertex="1">
          <mxGeometry x="24.999999999999886" y="380" width="80" height="40" as="geometry" />
        </mxCell>
        <mxCell id="PZJaL0K4n0An9xKFNR_v-71" style="rounded=0;orthogonalLoop=1;jettySize=auto;html=1;strokeWidth=2;endArrow=none;endFill=0;" parent="1" source="PZJaL0K4n0An9xKFNR_v-66" target="PZJaL0K4n0An9xKFNR_v-13" edge="1">
          <mxGeometry relative="1" as="geometry" />
        </mxCell>
        <mxCell id="PZJaL0K4n0An9xKFNR_v-66" value="Name" style="ellipse;whiteSpace=wrap;html=1;fillColor=#E6E6E6;fontFamily=Ubuntu Mono;fontSize=20;strokeWidth=3;" parent="1" vertex="1">
          <mxGeometry x="119.99999999999989" y="380" width="80" height="40" as="geometry" />
        </mxCell>
        <mxCell id="PZJaL0K4n0An9xKFNR_v-67" value="Phone" style="ellipse;whiteSpace=wrap;html=1;fillColor=#E6E6E6;fontFamily=Ubuntu Mono;fontSize=18;strokeWidth=2;" parent="1" vertex="1">
          <mxGeometry x="74.99999999999989" y="440" width="70" height="30" as="geometry" />
        </mxCell>
        <mxCell id="PZJaL0K4n0An9xKFNR_v-72" style="rounded=0;orthogonalLoop=1;jettySize=auto;html=1;strokeWidth=2;endArrow=none;endFill=0;" parent="1" source="PZJaL0K4n0An9xKFNR_v-68" target="PZJaL0K4n0An9xKFNR_v-13" edge="1">
          <mxGeometry relative="1" as="geometry" />
        </mxCell>
        <mxCell id="PZJaL0K4n0An9xKFNR_v-68" value="" style="ellipse;whiteSpace=wrap;html=1;fillColor=none;fontFamily=Ubuntu Mono;fontSize=20;strokeWidth=2;" parent="1" vertex="1">
          <mxGeometry x="69.99999999999989" y="435" width="80" height="40" as="geometry" />
        </mxCell>
        <mxCell id="PZJaL0K4n0An9xKFNR_v-78" style="rounded=0;orthogonalLoop=1;jettySize=auto;html=1;entryX=0.333;entryY=1;entryDx=0;entryDy=0;entryPerimeter=0;strokeWidth=2;endArrow=none;endFill=0;" parent="1" source="PZJaL0K4n0An9xKFNR_v-75" target="PZJaL0K4n0An9xKFNR_v-12" edge="1">
          <mxGeometry relative="1" as="geometry" />
        </mxCell>
        <mxCell id="PZJaL0K4n0An9xKFNR_v-75" value="DID" style="ellipse;whiteSpace=wrap;html=1;fillColor=#E6E6E6;fontFamily=Ubuntu Mono;fontSize=20;strokeWidth=3;fontStyle=4" parent="1" vertex="1">
          <mxGeometry x="229.9999999999999" y="380" width="80" height="40" as="geometry" />
        </mxCell>
        <mxCell id="PZJaL0K4n0An9xKFNR_v-81" style="rounded=0;orthogonalLoop=1;jettySize=auto;html=1;strokeWidth=2;endArrow=none;endFill=0;" parent="1" source="PZJaL0K4n0An9xKFNR_v-79" target="PZJaL0K4n0An9xKFNR_v-31" edge="1">
          <mxGeometry relative="1" as="geometry" />
        </mxCell>
        <mxCell id="PZJaL0K4n0An9xKFNR_v-79" value="CLID" style="ellipse;whiteSpace=wrap;html=1;fillColor=#E6E6E6;fontFamily=Ubuntu Mono;fontSize=20;strokeWidth=3;fontStyle=4" parent="1" vertex="1">
          <mxGeometry x="324.9999999999999" y="800" width="80" height="40" as="geometry" />
        </mxCell>
        <mxCell id="PZJaL0K4n0An9xKFNR_v-82" style="rounded=0;orthogonalLoop=1;jettySize=auto;html=1;strokeWidth=2;endArrow=none;endFill=0;" parent="1" source="PZJaL0K4n0An9xKFNR_v-80" target="PZJaL0K4n0An9xKFNR_v-31" edge="1">
          <mxGeometry relative="1" as="geometry" />
        </mxCell>
        <mxCell id="PZJaL0K4n0An9xKFNR_v-80" value="Room" style="ellipse;whiteSpace=wrap;html=1;fillColor=#E6E6E6;fontFamily=Ubuntu Mono;fontSize=20;strokeWidth=3;fontStyle=0" parent="1" vertex="1">
          <mxGeometry x="444.9999999999999" y="800" width="80" height="40" as="geometry" />
        </mxCell>
        <mxCell id="PZJaL0K4n0An9xKFNR_v-83" value="" style="endArrow=none;dashed=1;html=1;dashPattern=1 2;strokeWidth=3;rounded=0;startSize=6;jumpSize=6;jumpStyle=none;" parent="1" edge="1">
          <mxGeometry width="50" height="50" relative="1" as="geometry">
            <mxPoint x="20" y="620" as="sourcePoint" />
            <mxPoint x="755" y="620" as="targetPoint" />
          </mxGeometry>
        </mxCell>
      </root>
    </mxGraphModel>
  </diagram>
</mxfile>
